# xmcd
#
# Track frame offsets: 
#        150
#        15755
#        29606
#        44040
#
# Disc length: 755 seconds
#
# Revision: 0
# Processed by: cddbd v1.5.2PL0 Copyright (c) Steve Scherf et al.
# Submitted via: ExactAudioCopy v0.99pb5
#
DISCID=2902f104
DTITLE=The Broadsides - Bring Me Love!
DYEAR=1900
DGENRE=Country
TTITLE0=Bring Me Love
TTITLE1=What's Your Name
TTITLE2=Where's My Love
TTITLE3=What Have I Done
EXTD=
EXTT0=
EXTT1=
EXTT2=
EXTT3=
PLAYORDER=
